<svg style="max-height: 500px"
  data-bbox="50.062826823877685 170.56647096517833 413.9371731761223 122.07800001574032"
  viewBox="44.3732992 161.451008 429.056 138.24" xmlns="http://www.w3.org/2000/svg"
  xmlns:xlink="http://www.w3.org/1999/xlink" width="429.056" height="138.24">
  <g data-uid="o-cba8bc1e3b814019b1d43e9cd671a73e"
    transform="matrix(0.980873167514801, 0, 0, 0.980873167514801, 50.06282424926758, -15.47838306427002)"
    id="_yqgHs76s4VDbXufhKJocJ">
    <path data-uid="o-523a7d6bd4504b72b446ea7850b06fc7"
      transform="matrix(1.427236557006836, 0, 0, 1.427236557006836, -9.384902000427246, 180.2406768798828)"
      d="M60.429 22.609v15.668c9.984 1.137 17.74 9.608 17.74 19.895c0 11.064-8.967 20.031-20.029 20.031   c-10.288 0-18.759-7.756-19.896-17.74H22.576c1.181 18.615 16.65 33.348 35.564 33.348c19.682 0 35.639-15.955 35.639-35.639   C93.779 39.259 79.047 23.791 60.429 22.609z"
      fill="#3658C7" id="_iMrrpOhUsX3_rV0-g3gsT" />
    <path data-uid="o-e3ba613c4c3d499ba806889f541c0e0d"
      d="M42.013 10.077L42.013 30.642L17.709 6.339L6.307 17.743L30.61 42.045L10.043 42.045L10.043 58.172L58.14 58.172L58.14 10.077Z"
      data-type="polygon"
      transform="matrix(1.427236557006836, 0, 0, 1.427236557006836, -9.001580238342285, 180.62542724609375)"
      fill="#14255C" id="_6OPl13VxT1nFzDthF_US2" />
  </g>
  <path
    d="M 3.2 20.2Q-5 20.2-9.3 17.2L-9.3 17.2L-5.1 5.9Q-2.4 7.8  1.5 7.8L 1.5 7.8Q 4.5 7.8  6.2 5.85Q 7.9 3.9  7.9 0L 7.9 0L 7.9-53.8L 23.5-53.8L 23.5-0.1Q 23.5 9.3  18.15 14.75Q 12.8 20.2  3.2 20.2L 3.2 20.2ZM 15.7-61.3Q 11.4-61.3  8.7-63.8Q 6-66.3  6-70L 6-70Q 6-73.7  8.7-76.2Q 11.4-78.7  15.7-78.7L 15.7-78.7Q 20-78.7  22.7-76.3Q 25.4-73.9  25.4-70.3L 25.4-70.3Q 25.4-66.4  22.7-63.85Q 20-61.3  15.7-61.3L 15.7-61.3ZM 56 0.8Q 49.3 0.8  42.9-0.85Q 36.5-2.5  32.7-5L 32.7-5L 37.9-16.2Q 41.5-13.9  46.6-12.45Q 51.7-11  56.6-11L 56.6-11Q 66.5-11  66.5-15.9L 66.5-15.9Q 66.5-18.2  63.8-19.2Q 61.1-20.2  55.5-20.9L 55.5-20.9Q 48.9-21.9  44.6-23.2Q 40.3-24.5  37.15-27.8Q 34-31.1  34-37.2L 34-37.2Q 34-42.3  36.95-46.25Q 39.9-50.2  45.55-52.4Q 51.2-54.6  58.9-54.6L 58.9-54.6Q 64.6-54.6  70.25-53.35Q 75.9-52.1  79.6-49.9L 79.6-49.9L 74.4-38.8Q 67.3-42.8  58.9-42.8L 58.9-42.8Q 53.9-42.8  51.4-41.4Q 48.9-40  48.9-37.8L 48.9-37.8Q 48.9-35.3  51.6-34.3Q 54.3-33.3  60.2-32.4L 60.2-32.4Q 66.8-31.3  71-30.05Q 75.2-28.8  78.3-25.5Q 81.4-22.2  81.4-16.3L 81.4-16.3Q 81.4-11.3  78.4-7.4Q 75.4-3.5  69.65-1.35Q 63.9 0.8  56 0.8L 56 0.8ZM 89-21.9L 89-34.4L 117.3-34.4L 117.3-21.9L 89-21.9ZM 160.1-13.6L 164.3-2.6Q 162-0.9  158.65-0.05Q 155.3 0.8  151.6 0.8L 151.6 0.8Q 142 0.8  136.75-4.1Q 131.5-9  131.5-18.5L 131.5-18.5L 131.5-40.6L 123.2-40.6L 123.2-52.6L 131.5-52.6L 131.5-65.7L 147.1-65.7L 147.1-52.6L 160.5-52.6L 160.5-40.6L 147.1-40.6L 147.1-18.7Q 147.1-15.3  148.85-13.45Q 150.6-11.6  153.8-11.6L 153.8-11.6Q 157.5-11.6  160.1-13.6L 160.1-13.6ZM 224.1-26.7Q 224.1-26.4  223.8-22.5L 223.8-22.5L 183.1-22.5Q 184.2-17.5  188.3-14.6Q 192.4-11.7  198.5-11.7L 198.5-11.7Q 202.7-11.7  205.95-12.95Q 209.2-14.2  212-16.9L 212-16.9L 220.3-7.9Q 212.7 0.8  198.1 0.8L 198.1 0.8Q 189 0.8  182-2.75Q 175-6.3  171.2-12.6Q 167.4-18.9  167.4-26.9L 167.4-26.9Q 167.4-34.8  171.15-41.15Q 174.9-47.5  181.45-51.05Q 188-54.6  196.1-54.6L 196.1-54.6Q 204-54.6  210.4-51.2Q 216.8-47.8  220.45-41.45Q 224.1-35.1  224.1-26.7L 224.1-26.7ZM 196.2-42.8Q 190.9-42.8  187.3-39.8Q 183.7-36.8  182.9-31.6L 182.9-31.6L 209.4-31.6Q 208.6-36.7  205-39.75Q 201.4-42.8  196.2-42.8L 196.2-42.8ZM 260.5 0.8Q 251.9 0.8  245.05-2.75Q 238.2-6.3  234.35-12.6Q 230.5-18.9  230.5-26.9L 230.5-26.9Q 230.5-34.9  234.35-41.2Q 238.2-47.5  245.05-51.05Q 251.9-54.6  260.5-54.6L 260.5-54.6Q 269-54.6  275.35-51.05Q 281.7-47.5  284.6-40.9L 284.6-40.9L 272.5-34.4Q 268.3-41.8  260.4-41.8L 260.4-41.8Q 254.3-41.8  250.3-37.8Q 246.3-33.8  246.3-26.9L 246.3-26.9Q 246.3-20  250.3-16Q 254.3-12  260.4-12L 260.4-12Q 268.4-12  272.5-19.4L 272.5-19.4L 284.6-12.8Q 281.7-6.4  275.35-2.8Q 269 0.8  260.5 0.8L 260.5 0.8ZM 325.9-54.6Q 335.9-54.6  342.05-48.6Q 348.2-42.6  348.2-30.8L 348.2-30.8L 348.2 0L 332.6 0L 332.6-28.4Q 332.6-34.8  329.8-37.95Q 327-41.1  321.7-41.1L 321.7-41.1Q 315.8-41.1  312.3-37.45Q 308.8-33.8  308.8-26.6L 308.8-26.6L 308.8 0L 293.2 0L 293.2-74.2L 308.8-74.2L 308.8-48.2Q 311.9-51.3  316.3-52.95Q 320.7-54.6  325.9-54.6L 325.9-54.6ZM 353.9-70L 384.1-70L 384.1 0L 367.9 0L 367.9-57L 353.9-57L 353.9-70Z"
    data-uid="o-e1fb795677c2424b9d8918dffd4c9b97" id="_rZhMaNobuXOZMwVdZFPRK" data-fl-textpath=""
    font-weight="700" fill="#FFFFFF" y="0" x="0"
    transform="matrix(0.7418855428695679, 0, 0, 0.7418855428695679, 179.04176330566406, 253.3056182861328)"
    font-family="Montserrat" href="" dy="0" dx="0" offset="0" letter-spacing="0" font-size="100"
    text-anchor="start" />
</svg>